<svg width="24" height="24" viewBox="0 0 24 24" fill="none" xmlns="http://www.w3.org/2000/svg">
<rect width="24" height="24" rx="12" fill="#B50000"/>
<path d="M7.625 20C7.14375 20 6.73162 19.8258 6.38862 19.4773C6.04562 19.1289 5.87442 18.7105 5.875 18.2222V6.66667H5V4.88889H9.375V4H14.625V4.88889H19V6.66667H18.125V18.2222C18.125 18.7111 17.9535 19.1298 17.6105 19.4782C17.2675 19.8267 16.8557 20.0006 16.375 20H7.625ZM16.375 6.66667H7.625V18.2222H16.375V6.66667ZM9.375 16.4444H11.125V8.44444H9.375V16.4444ZM12.875 16.4444H14.625V8.44444H12.875V16.4444Z" fill="white"/>
</svg>
