<svg width="24" height="24" viewBox="0 0 24 24" fill="none" xmlns="http://www.w3.org/2000/svg">
<path d="M12 2.25C6.616 2.25 2.25 6.616 2.25 12C2.25 17.384 6.616 21.75 12 21.75V19.312C10.5539 19.3118 9.14026 18.8828 7.93794 18.0792C6.73562 17.2756 5.79858 16.1336 5.24531 14.7975C4.69203 13.4614 4.54737 11.9912 4.82962 10.5729C5.11187 9.15456 5.80835 7.85178 6.83099 6.82928C7.85363 5.80678 9.15651 5.11048 10.5749 4.82842C11.9932 4.54637 13.4634 4.69123 14.7994 5.24469C16.1354 5.79815 17.2774 6.73534 18.0808 7.93777C18.8842 9.1402 19.313 10.5539 19.313 12H21.75C21.75 6.616 17.384 2.25 12 2.25Z" fill="black" fill-opacity="0.3"/>
</svg>
